<svg xmlns="http://www.w3.org/2000/svg" xmlns:xlink="http://www.w3.org/1999/xlink" version="1.1" width="256" height="256" viewBox="0 0 256 256" xml:space="preserve">

<defs>
</defs>
<g style="stroke: none; stroke-width: 0; stroke-dasharray: none; stroke-linecap: butt; stroke-linejoin: miter; stroke-miterlimit: 10; fill: none; fill-rule: nonzero; opacity: 1;" transform="translate(1.4065934065934016 1.4065934065934016) scale(2.81 2.81)" >
	<path d="M 31.972 32.535 c -0.312 0.312 -0.817 0.312 -1.129 0 l -8.518 -8.518 c -1.311 -1.311 -1.935 -3.125 -1.692 -5.007 c 0.131 -1.015 0.532 -1.986 1.155 -2.798 c 1.193 -1.555 2.991 -2.406 4.912 -2.353 c 1.562 0.042 3.037 0.736 4.142 1.842 l 0 0 c 0.312 0.312 0.817 0.312 1.129 0 l 0.013 -0.013 c 1.09 -1.09 2.542 -1.774 4.083 -1.827 c 1.669 -0.058 3.248 0.565 4.422 1.74 l 0 0 c 1.124 1.124 1.743 2.619 1.743 4.209 s -0.619 3.085 -1.743 4.209 L 31.972 32.535 z" style="stroke: none; stroke-width: 1; stroke-dasharray: none; stroke-linecap: butt; stroke-linejoin: miter; stroke-miterlimit: 10; fill: rgb(254,85,120); fill-rule: nonzero; opacity: 1;" transform=" matrix(1 0 0 1 0 0) " stroke-linecap="round" />
	<path d="M 31.407 33.767 c -0.46 0 -0.921 -0.175 -1.271 -0.525 l -8.518 -8.519 c -1.538 -1.537 -2.258 -3.667 -1.977 -5.843 c 0.154 -1.192 0.623 -2.326 1.354 -3.278 c 1.384 -1.805 3.463 -2.804 5.732 -2.744 c 1.719 0.046 3.373 0.753 4.679 1.995 c 1.297 -1.233 2.928 -1.935 4.626 -1.994 c 1.951 -0.079 3.785 0.654 5.164 2.032 c 1.313 1.313 2.036 3.059 2.036 4.916 s -0.723 3.603 -2.036 4.916 l -8.519 8.519 C 32.328 33.592 31.867 33.767 31.407 33.767 z M 26.534 14.855 c -1.557 0 -2.991 0.711 -3.952 1.964 c -0.517 0.673 -0.848 1.474 -0.957 2.317 c -0.201 1.556 0.312 3.076 1.407 4.172 l 8.375 8.376 l 8.375 -8.375 c 0.935 -0.935 1.45 -2.179 1.45 -3.502 s -0.515 -2.567 -1.45 -3.502 c -0.982 -0.982 -2.288 -1.506 -3.68 -1.447 c -1.253 0.043 -2.464 0.589 -3.411 1.535 c -0.715 0.715 -1.855 0.714 -2.557 0.013 c -0.964 -0.964 -2.194 -1.514 -3.462 -1.549 C 26.626 14.856 26.58 14.855 26.534 14.855 z" style="stroke: none; stroke-width: 1; stroke-dasharray: none; stroke-linecap: butt; stroke-linejoin: miter; stroke-miterlimit: 10; fill: rgb(0,0,0); fill-rule: nonzero; opacity: 1;" transform=" matrix(1 0 0 1 0 0) " stroke-linecap="round" />
	<path d="M 75.086 63.113 H 64.485 c -1.777 0 -3.218 -1.441 -3.218 -3.218 V 36.584 c 0 -1.778 1.441 -3.218 3.218 -3.218 h 10.601 C 82.758 33.366 89 39.607 89 47.28 v 1.919 C 89 56.871 82.758 63.113 75.086 63.113 z M 67.703 56.676 h 7.382 c 4.124 0 7.478 -3.354 7.478 -7.478 V 47.28 c 0 -4.123 -3.354 -7.478 -7.478 -7.478 h -7.382 V 56.676 z" style="stroke: none; stroke-width: 1; stroke-dasharray: none; stroke-linecap: butt; stroke-linejoin: miter; stroke-miterlimit: 10; fill: rgb(238,234,241); fill-rule: nonzero; opacity: 1;" transform=" matrix(1 0 0 1 0 0) " stroke-linecap="round" />
	<path d="M 75.086 64.113 H 64.485 c -2.326 0 -4.219 -1.893 -4.219 -4.219 V 36.584 c 0 -2.326 1.893 -4.218 4.219 -4.218 h 10.601 C 83.31 32.366 90 39.056 90 47.28 v 1.919 C 90 57.423 83.31 64.113 75.086 64.113 z M 64.485 34.366 c -1.224 0 -2.219 0.995 -2.219 2.218 v 23.311 c 0 1.224 0.995 2.219 2.219 2.219 h 10.601 C 82.207 62.113 88 56.32 88 49.199 V 47.28 c 0 -7.121 -5.793 -12.915 -12.914 -12.915 H 64.485 z M 75.086 57.677 h -7.383 c -0.553 0 -1 -0.447 -1 -1 V 39.802 c 0 -0.552 0.447 -1 1 -1 h 7.383 c 4.675 0 8.478 3.803 8.478 8.478 v 1.919 C 83.563 53.874 79.761 57.677 75.086 57.677 z M 68.703 55.677 h 6.383 c 3.571 0 6.478 -2.906 6.478 -6.478 V 47.28 c 0 -3.572 -2.906 -6.478 -6.478 -6.478 h -6.383 V 55.677 z" style="stroke: none; stroke-width: 1; stroke-dasharray: none; stroke-linecap: butt; stroke-linejoin: miter; stroke-miterlimit: 10; fill: rgb(0,0,0); fill-rule: nonzero; opacity: 1;" transform=" matrix(1 0 0 1 0 0) " stroke-linecap="round" />
	<path d="M 43.11 83.559 h -4.99 c -15.364 0 -27.82 -12.455 -27.82 -27.82 v -27.57 H 70.93 v 27.57 C 70.93 71.104 58.475 83.559 43.11 83.559 z" style="stroke: none; stroke-width: 1; stroke-dasharray: none; stroke-linecap: butt; stroke-linejoin: miter; stroke-miterlimit: 10; fill: rgb(238,234,241); fill-rule: nonzero; opacity: 1;" transform=" matrix(1 0 0 1 0 0) " stroke-linecap="round" />
	<path d="M 43.11 84.559 h -4.99 c -15.891 0 -28.819 -12.929 -28.819 -28.819 v -27.57 c 0 -0.552 0.448 -1 1 -1 H 70.93 c 0.553 0 1 0.448 1 1 v 27.57 C 71.93 71.63 59.001 84.559 43.11 84.559 z M 11.301 29.169 v 26.57 c 0 14.788 12.031 26.819 26.819 26.819 h 4.99 c 14.788 0 26.819 -12.031 26.819 -26.819 v -26.57 H 11.301 z" style="stroke: none; stroke-width: 1; stroke-dasharray: none; stroke-linecap: butt; stroke-linejoin: miter; stroke-miterlimit: 10; fill: rgb(0,0,0); fill-rule: nonzero; opacity: 1;" transform=" matrix(1 0 0 1 0 0) " stroke-linecap="round" />
	<path d="M 76.632 80.8 H 1 v 0 c 0 3.909 3.169 7.079 7.079 7.079 h 61.474 C 73.463 87.879 76.632 84.71 76.632 80.8 L 76.632 80.8 z" style="stroke: none; stroke-width: 1; stroke-dasharray: none; stroke-linecap: butt; stroke-linejoin: miter; stroke-miterlimit: 10; fill: rgb(238,234,241); fill-rule: nonzero; opacity: 1;" transform=" matrix(1 0 0 1 0 0) " stroke-linecap="round" />
	<path d="M 69.553 88.879 H 8.079 C 3.624 88.879 0 85.255 0 80.8 c 0 -0.553 0.448 -1 1 -1 h 75.632 c 0.553 0 1 0.447 1 1 C 77.632 85.255 74.008 88.879 69.553 88.879 z M 2.082 81.8 c 0.479 2.878 2.985 5.079 5.997 5.079 h 61.474 c 3.012 0 5.519 -2.201 5.997 -5.079 H 2.082 z" style="stroke: none; stroke-width: 1; stroke-dasharray: none; stroke-linecap: butt; stroke-linejoin: miter; stroke-miterlimit: 10; fill: rgb(0,0,0); fill-rule: nonzero; opacity: 1;" transform=" matrix(1 0 0 1 0 0) " stroke-linecap="round" />
	<path d="M 41.414 65.557 c -0.419 0.419 -1.099 0.419 -1.518 0 L 28.443 54.104 c -1.763 -1.762 -2.602 -4.202 -2.275 -6.733 c 0.177 -1.365 0.715 -2.67 1.553 -3.762 c 1.604 -2.091 4.021 -3.235 6.605 -3.164 c 2.101 0.057 4.084 0.99 5.57 2.476 l 0 0 c 0.419 0.419 1.099 0.419 1.518 0 l 0.018 -0.018 c 1.466 -1.466 3.418 -2.385 5.49 -2.457 c 2.244 -0.078 4.367 0.76 5.946 2.339 l 0 0 c 1.512 1.512 2.344 3.521 2.344 5.659 s -0.832 4.148 -2.344 5.659 L 41.414 65.557 z" style="stroke: none; stroke-width: 1; stroke-dasharray: none; stroke-linecap: butt; stroke-linejoin: miter; stroke-miterlimit: 10; fill: rgb(254,85,120); fill-rule: nonzero; opacity: 1;" transform=" matrix(1 0 0 1 0 0) " stroke-linecap="round" />
	<path d="M 40.655 66.871 c -0.531 0 -1.062 -0.202 -1.466 -0.606 L 27.735 54.811 c -1.991 -1.99 -2.924 -4.749 -2.559 -7.568 c 0.199 -1.542 0.805 -3.008 1.752 -4.242 c 1.795 -2.339 4.524 -3.635 7.425 -3.555 c 2.308 0.063 4.527 1.046 6.25 2.769 c 0.025 0.025 0.08 0.024 0.104 0 c 1.711 -1.711 3.9 -2.688 6.181 -2.767 c 2.509 -0.093 4.902 0.847 6.687 2.632 c 1.701 1.701 2.638 3.962 2.638 6.367 s -0.937 4.665 -2.638 6.366 L 42.121 66.265 C 41.716 66.669 41.186 66.871 40.655 66.871 z M 34.102 41.442 c -2.2 0 -4.228 1.004 -5.587 2.776 c -0.732 0.954 -1.201 2.088 -1.355 3.281 c -0.285 2.199 0.44 4.349 1.99 5.897 l 11.454 11.454 c 0.028 0.029 0.076 0.028 0.104 -0.001 L 52.16 53.397 c 1.323 -1.323 2.052 -3.082 2.052 -4.952 s -0.729 -3.629 -2.052 -4.953 c -1.389 -1.389 -3.248 -2.116 -5.203 -2.047 c -1.773 0.062 -3.484 0.83 -4.818 2.165 c -0.819 0.819 -2.167 0.801 -2.95 0.017 c -1.359 -1.359 -3.096 -2.134 -4.89 -2.183 C 34.233 41.443 34.167 41.442 34.102 41.442 z" style="stroke: none; stroke-width: 1; stroke-dasharray: none; stroke-linecap: butt; stroke-linejoin: miter; stroke-miterlimit: 10; fill: rgb(0,0,0); fill-rule: nonzero; opacity: 1;" transform=" matrix(1 0 0 1 0 0) " stroke-linecap="round" />
	<path d="M 55.847 16.677 c -0.243 0.243 -0.637 0.243 -0.88 0 l -6.638 -6.638 c -1.022 -1.021 -1.508 -2.435 -1.318 -3.902 c 0.102 -0.791 0.415 -1.547 0.9 -2.18 c 0.93 -1.212 2.331 -1.875 3.828 -1.834 c 1.218 0.033 2.367 0.574 3.228 1.435 l 0 0 c 0.243 0.243 0.637 0.243 0.88 0 l 0.01 -0.01 c 0.849 -0.849 1.981 -1.382 3.182 -1.424 c 1.301 -0.045 2.531 0.441 3.446 1.356 l 0 0 c 0.876 0.876 1.359 2.041 1.359 3.28 s -0.482 2.404 -1.359 3.28 L 55.847 16.677 z" style="stroke: none; stroke-width: 1; stroke-dasharray: none; stroke-linecap: butt; stroke-linejoin: miter; stroke-miterlimit: 10; fill: rgb(254,85,120); fill-rule: nonzero; opacity: 1;" transform=" matrix(1 0 0 1 0 0) " stroke-linecap="round" />
	<path d="M 55.407 17.86 c -0.434 0 -0.841 -0.169 -1.147 -0.476 l -6.638 -6.638 c -1.247 -1.247 -1.831 -2.973 -1.604 -4.737 c 0.126 -0.967 0.506 -1.887 1.099 -2.661 c 1.123 -1.464 2.795 -2.283 4.649 -2.225 c 1.328 0.036 2.607 0.557 3.641 1.476 c 1.025 -0.912 2.287 -1.429 3.598 -1.475 c 1.568 -0.055 3.071 0.531 4.188 1.649 c 1.064 1.063 1.651 2.479 1.651 3.986 s -0.587 2.923 -1.652 3.987 l -6.636 6.636 c -0.307 0.307 -0.713 0.477 -1.146 0.477 C 55.408 17.86 55.407 17.86 55.407 17.86 z M 55.139 15.971 C 55.139 15.971 55.139 15.971 55.139 15.971 L 55.139 15.971 z M 51.61 3.121 c -1.145 0 -2.198 0.523 -2.906 1.445 c -0.379 0.494 -0.621 1.082 -0.702 1.7 c -0.147 1.144 0.229 2.262 1.034 3.067 l 6.37 6.371 l 6.371 -6.371 c 0.688 -0.687 1.066 -1.601 1.066 -2.573 s -0.379 -1.886 -1.066 -2.572 c -0.721 -0.722 -1.686 -1.091 -2.704 -1.064 c -0.919 0.032 -1.811 0.434 -2.509 1.132 c -0.315 0.315 -0.722 0.485 -1.155 0.485 c -0.001 0 -0.002 0 -0.002 0 c -0.434 0 -0.841 -0.169 -1.147 -0.476 c -0.712 -0.711 -1.616 -1.117 -2.548 -1.143 C 51.678 3.122 51.644 3.121 51.61 3.121 z M 55.14 2.851 c -0.001 0 -0.001 0.001 -0.002 0.001 C 55.139 2.852 55.139 2.852 55.14 2.851 z" style="stroke: none; stroke-width: 1; stroke-dasharray: none; stroke-linecap: butt; stroke-linejoin: miter; stroke-miterlimit: 10; fill: rgb(0,0,0); fill-rule: nonzero; opacity: 1;" transform=" matrix(1 0 0 1 0 0) " stroke-linecap="round" />
</g>
</svg>