<svg xmlns="http://www.w3.org/2000/svg" xmlns:xlink="http://www.w3.org/1999/xlink" version="1.1" width="256" height="256" viewBox="0 0 256 256" xml:space="preserve">

<defs>
</defs>
<g style="stroke: none; stroke-width: 0; stroke-dasharray: none; stroke-linecap: butt; stroke-linejoin: miter; stroke-miterlimit: 10; fill: none; fill-rule: nonzero; opacity: 1;" transform="translate(1.4065934065934016 1.4065934065934016) scale(2.81 2.81)" >
	<polygon points="20.27,11.22 3.92,22.53 14.46,39.94 1,49.13 45,88.6 25.96,21.78 " style="stroke: none; stroke-width: 1; stroke-dasharray: none; stroke-linecap: butt; stroke-linejoin: miter; stroke-miterlimit: 10; fill: rgb(72,126,167); fill-rule: nonzero; opacity: 1;" transform="  matrix(1 0 0 1 0 0) "/>
	<polygon points="69.72,11.22 86.08,22.53 75.54,39.94 89,49.13 45,88.6 64.04,21.78 " style="stroke: none; stroke-width: 1; stroke-dasharray: none; stroke-linecap: butt; stroke-linejoin: miter; stroke-miterlimit: 10; fill: rgb(72,126,167); fill-rule: nonzero; opacity: 1;" transform="  matrix(1 0 0 1 0 0) "/>
	<polygon points="45,88.6 23,11.22 67,11.22 " style="stroke: none; stroke-width: 1; stroke-dasharray: none; stroke-linecap: butt; stroke-linejoin: miter; stroke-miterlimit: 10; fill: rgb(190,212,229); fill-rule: nonzero; opacity: 1;" transform="  matrix(1 0 0 1 0 0) "/>
	<path d="M 64.365 1.78 L 50.241 8.595 v 0.027 c -0.676 -1.426 -2.116 -2.419 -3.799 -2.419 h -2.885 c -1.672 0 -3.103 0.981 -3.784 2.392 v -0.03 L 25.635 1.78 c -2.475 -1.208 -5.36 0.595 -5.36 3.349 v 6.73 v 6.73 c 0 2.754 2.885 4.557 5.36 3.349 l 14.138 -6.787 v -0.028 c 0.681 1.411 2.112 2.392 3.784 2.392 h 2.885 c 1.682 0 3.123 -0.993 3.799 -2.419 v 0.026 l 14.124 6.815 c 2.475 1.208 5.36 -0.595 5.36 -3.349 v -6.73 v -6.73 C 69.725 2.375 66.84 0.573 64.365 1.78 z" style="stroke: none; stroke-width: 1; stroke-dasharray: none; stroke-linecap: butt; stroke-linejoin: miter; stroke-miterlimit: 10; fill: rgb(72,126,167); fill-rule: nonzero; opacity: 1;" transform=" matrix(1 0 0 1 0 0) " stroke-linecap="round" />
	<path d="M 46.442 18.516 h -2.885 c -2.875 0 -5.214 -2.339 -5.214 -5.213 v -2.885 c 0 -2.875 2.339 -5.214 5.214 -5.214 h 2.885 c 2.875 0 5.214 2.339 5.214 5.214 v 2.885 C 51.656 16.177 49.317 18.516 46.442 18.516 z M 43.558 7.203 c -1.772 0 -3.214 1.442 -3.214 3.214 v 2.885 c 0 1.772 1.442 3.213 3.214 3.213 h 2.885 c 1.772 0 3.214 -1.441 3.214 -3.213 v -2.885 c 0 -1.772 -1.441 -3.214 -3.214 -3.214 H 43.558 z" style="stroke: none; stroke-width: 1; stroke-dasharray: none; stroke-linecap: butt; stroke-linejoin: miter; stroke-miterlimit: 10; fill: rgb(63,63,63); fill-rule: nonzero; opacity: 1;" transform=" matrix(1 0 0 1 0 0) " stroke-linecap="round" />
	<path d="M 24 23.32 c -0.869 0 -1.734 -0.242 -2.502 -0.722 c -1.392 -0.869 -2.222 -2.368 -2.222 -4.008 V 5.129 c 0 -1.641 0.831 -3.139 2.222 -4.008 c 1.391 -0.868 3.102 -0.958 4.576 -0.24 l 14.133 6.783 c 0.498 0.239 0.708 0.836 0.469 1.334 c -0.239 0.499 -0.836 0.709 -1.334 0.469 L 25.202 2.682 c -0.855 -0.417 -1.842 -0.367 -2.646 0.136 c -0.803 0.501 -1.282 1.366 -1.282 2.312 v 13.46 c 0 0.946 0.479 1.811 1.282 2.312 c 0.802 0.502 1.789 0.553 2.64 0.138 l 14.145 -6.79 c 0.496 -0.238 1.095 -0.029 1.334 0.469 c 0.239 0.498 0.029 1.095 -0.469 1.334 L 26.067 22.84 C 25.41 23.161 24.704 23.32 24 23.32 z" style="stroke: none; stroke-width: 1; stroke-dasharray: none; stroke-linecap: butt; stroke-linejoin: miter; stroke-miterlimit: 10; fill: rgb(63,63,63); fill-rule: nonzero; opacity: 1;" transform=" matrix(1 0 0 1 0 0) " stroke-linecap="round" />
	<path d="M 66.002 23.319 c -0.706 0 -1.414 -0.16 -2.075 -0.482 l -14.12 -6.813 c -0.497 -0.24 -0.706 -0.838 -0.466 -1.335 c 0.239 -0.497 0.839 -0.705 1.335 -0.466 L 64.8 21.038 c 0.855 0.418 1.842 0.366 2.645 -0.136 c 0.802 -0.501 1.281 -1.366 1.281 -2.312 V 5.129 c 0 -0.946 -0.479 -1.811 -1.281 -2.312 c -0.805 -0.502 -1.792 -0.553 -2.641 -0.138 L 50.676 9.496 c -0.498 0.24 -1.097 0.031 -1.335 -0.466 c -0.24 -0.498 -0.031 -1.095 0.466 -1.335 l 14.124 -6.815 c 1.472 -0.717 3.181 -0.628 4.573 0.242 c 1.391 0.869 2.222 2.368 2.222 4.008 v 13.46 c 0 1.641 -0.831 3.139 -2.222 4.008 C 67.736 23.077 66.871 23.319 66.002 23.319 z" style="stroke: none; stroke-width: 1; stroke-dasharray: none; stroke-linecap: butt; stroke-linejoin: miter; stroke-miterlimit: 10; fill: rgb(63,63,63); fill-rule: nonzero; opacity: 1;" transform=" matrix(1 0 0 1 0 0) " stroke-linecap="round" />
	<path d="M 45 89.602 c -0.24 0 -0.479 -0.087 -0.668 -0.256 l -44 -39.471 c -0.229 -0.205 -0.35 -0.504 -0.33 -0.81 c 0.021 -0.307 0.18 -0.587 0.434 -0.76 l 12.674 -8.661 L 3.06 23.048 c -0.274 -0.453 -0.148 -1.04 0.287 -1.341 l 16.359 -11.31 c 0.456 -0.314 1.077 -0.2 1.392 0.254 c 0.314 0.455 0.2 1.077 -0.254 1.392 L 5.258 22.817 l 10.053 16.601 c 0.275 0.454 0.147 1.044 -0.292 1.344 L 2.616 49.237 l 40.473 36.307 L 24.996 22.055 c -0.151 -0.531 0.157 -1.084 0.688 -1.236 c 0.529 -0.15 1.084 0.156 1.236 0.688 l 19.042 66.82 c 0.122 0.429 -0.054 0.887 -0.432 1.122 C 45.367 89.552 45.183 89.602 45 89.602 z" style="stroke: none; stroke-width: 1; stroke-dasharray: none; stroke-linecap: butt; stroke-linejoin: miter; stroke-miterlimit: 10; fill: rgb(63,63,63); fill-rule: nonzero; opacity: 1;" transform=" matrix(1 0 0 1 0 0) " stroke-linecap="round" />
	<path d="M 45 89.602 c -0.183 0 -0.367 -0.05 -0.53 -0.152 c -0.378 -0.235 -0.554 -0.693 -0.432 -1.122 l 19.042 -66.82 c 0.151 -0.531 0.705 -0.838 1.236 -0.688 c 0.531 0.151 0.839 0.705 0.688 1.236 L 46.911 85.544 l 40.473 -36.307 l -12.404 -8.476 c -0.438 -0.3 -0.566 -0.89 -0.291 -1.344 l 10.054 -16.601 L 69.157 12.043 c -0.455 -0.314 -0.568 -0.937 -0.254 -1.392 c 0.313 -0.454 0.938 -0.568 1.391 -0.254 l 16.359 11.31 c 0.436 0.301 0.561 0.888 0.287 1.341 L 76.89 39.645 l 12.675 8.661 c 0.253 0.173 0.413 0.453 0.434 0.76 c 0.02 0.306 -0.102 0.604 -0.33 0.81 l -44 39.471 C 45.479 89.515 45.24 89.602 45 89.602 z" style="stroke: none; stroke-width: 1; stroke-dasharray: none; stroke-linecap: butt; stroke-linejoin: miter; stroke-miterlimit: 10; fill: rgb(63,63,63); fill-rule: nonzero; opacity: 1;" transform=" matrix(1 0 0 1 0 0) " stroke-linecap="round" />
	<path d="M 45.249 31.835 c -0.552 0 -1 -0.448 -1 -1 V 29.53 c 0 -0.552 0.448 -1 1 -1 s 1 0.448 1 1 v 1.305 C 46.249 31.388 45.801 31.835 45.249 31.835 z" style="stroke: none; stroke-width: 1; stroke-dasharray: none; stroke-linecap: butt; stroke-linejoin: miter; stroke-miterlimit: 10; fill: rgb(63,63,63); fill-rule: nonzero; opacity: 1;" transform=" matrix(1 0 0 1 0 0) " stroke-linecap="round" />
	<path d="M 45.249 45.976 c -0.552 0 -1 -0.448 -1 -1 v -1.305 c 0 -0.552 0.448 -1 1 -1 s 1 0.448 1 1 v 1.305 C 46.249 45.528 45.801 45.976 45.249 45.976 z" style="stroke: none; stroke-width: 1; stroke-dasharray: none; stroke-linecap: butt; stroke-linejoin: miter; stroke-miterlimit: 10; fill: rgb(63,63,63); fill-rule: nonzero; opacity: 1;" transform=" matrix(1 0 0 1 0 0) " stroke-linecap="round" />
	<path d="M 45.249 60.117 c -0.552 0 -1 -0.447 -1 -1 v -1.306 c 0 -0.553 0.448 -1 1 -1 s 1 0.447 1 1 v 1.306 C 46.249 59.67 45.801 60.117 45.249 60.117 z" style="stroke: none; stroke-width: 1; stroke-dasharray: none; stroke-linecap: butt; stroke-linejoin: miter; stroke-miterlimit: 10; fill: rgb(63,63,63); fill-rule: nonzero; opacity: 1;" transform=" matrix(1 0 0 1 0 0) " stroke-linecap="round" />
</g>
</svg>