<svg xmlns="http://www.w3.org/2000/svg" xmlns:xlink="http://www.w3.org/1999/xlink" version="1.1" width="256" height="256" viewBox="0 0 256 256" xml:space="preserve">

<defs>
</defs>
<g style="stroke: none; stroke-width: 0; stroke-dasharray: none; stroke-linecap: butt; stroke-linejoin: miter; stroke-miterlimit: 10; fill: none; fill-rule: nonzero; opacity: 1;" transform="translate(1.4065934065934016 1.4065934065934016) scale(2.81 2.81)" >
	<rect x="42.77" y="19.02" rx="0" ry="0" width="28.19" height="34.21" style="stroke: none; stroke-width: 1; stroke-dasharray: none; stroke-linecap: butt; stroke-linejoin: miter; stroke-miterlimit: 10; fill: rgb(252,93,61); fill-rule: nonzero; opacity: 1;" transform=" matrix(1 0 0 1 0 0) "/>
	<rect x="19.04" y="36.77" rx="0" ry="0" width="25.98" height="34.21" style="stroke: none; stroke-width: 1; stroke-dasharray: none; stroke-linecap: butt; stroke-linejoin: miter; stroke-miterlimit: 10; fill: rgb(19,191,109); fill-rule: nonzero; opacity: 1;" transform=" matrix(1 0 0 1 0 0) "/>
	<path d="M 42.382 52.991 h 2.599 V 45 h 7.991 v 2.599 c 0 2.761 2.238 4.999 4.999 4.999 s 4.999 -2.238 4.999 -4.999 V 45 h 7.991 v 25.981 H 44.981 V 62.99 h -2.599 c -2.761 0 -4.999 -2.238 -4.999 -4.999 C 37.382 55.229 39.621 52.991 42.382 52.991 z" style="stroke: none; stroke-width: 1; stroke-dasharray: none; stroke-linecap: butt; stroke-linejoin: miter; stroke-miterlimit: 10; fill: rgb(114,194,233); fill-rule: nonzero; opacity: 1;" transform=" matrix(1 0 0 1 0 0) " stroke-linecap="round" />
	<path d="M 47.618 37.009 h -2.599 V 45 h -7.991 v -2.599 c 0 -2.761 -2.238 -4.999 -4.999 -4.999 s -4.999 2.238 -4.999 4.999 V 45 h -7.991 V 19.019 h 25.981 v 7.991 h 2.599 c 2.761 0 4.999 2.238 4.999 4.999 C 52.618 34.771 50.379 37.009 47.618 37.009 z" style="stroke: none; stroke-width: 1; stroke-dasharray: none; stroke-linecap: butt; stroke-linejoin: miter; stroke-miterlimit: 10; fill: rgb(242,191,34); fill-rule: nonzero; opacity: 1;" transform=" matrix(1 0 0 1 0 0) " stroke-linecap="round" />
	<path d="M 70.962 71.981 H 44.98 c -0.552 0 -1 -0.447 -1 -1 V 63.99 h -1.599 c -3.308 0 -6 -2.691 -6 -6 c 0 -3.308 2.691 -5.999 6 -5.999 h 1.599 V 45 c 0 -0.552 0.448 -1 1 -1 h 7.991 c 0.553 0 1 0.448 1 1 v 2.599 c 0 2.205 1.794 3.999 3.999 3.999 c 2.206 0 4 -1.794 4 -3.999 V 45 c 0 -0.552 0.447 -1 1 -1 h 7.991 c 0.553 0 1 0.448 1 1 v 25.981 C 71.962 71.534 71.515 71.981 70.962 71.981 z M 45.98 69.981 h 23.981 V 46 h -5.991 v 1.599 c 0 3.308 -2.691 5.999 -6 5.999 c -3.308 0 -5.999 -2.691 -5.999 -5.999 V 46 H 45.98 v 6.991 c 0 0.553 -0.448 1 -1 1 h -2.599 c -2.206 0 -4 1.794 -4 3.999 c 0 2.206 1.794 4 4 4 h 2.599 c 0.552 0 1 0.447 1 1 V 69.981 z" style="stroke: none; stroke-width: 1; stroke-dasharray: none; stroke-linecap: butt; stroke-linejoin: miter; stroke-miterlimit: 10; fill: rgb(0,0,0); fill-rule: nonzero; opacity: 1;" transform=" matrix(1 0 0 1 0 0) " stroke-linecap="round" />
	<path d="M 45.02 46 h -7.991 c -0.552 0 -1 -0.448 -1 -1 v -2.599 c 0 -2.206 -1.794 -4 -4 -4 s -4 1.794 -4 4 V 45 c 0 0.552 -0.448 1 -1 1 h -7.991 c -0.552 0 -1 -0.448 -1 -1 V 19.019 c 0 -0.552 0.448 -1 1 -1 H 45.02 c 0.552 0 1 0.448 1 1 v 6.991 h 1.599 c 3.308 0 5.999 2.691 5.999 5.999 s -2.691 6 -5.999 6 H 46.02 V 45 C 46.02 45.552 45.572 46 45.02 46 z M 38.028 44 h 5.991 v -6.991 c 0 -0.552 0.448 -1 1 -1 h 2.599 c 2.205 0 3.999 -1.794 3.999 -4 c 0 -2.205 -1.794 -3.999 -3.999 -3.999 H 45.02 c -0.552 0 -1 -0.448 -1 -1 v -6.991 H 20.038 V 44 h 5.991 v -1.599 c 0 -3.308 2.691 -6 6 -6 s 6 2.691 6 6 V 44 z" style="stroke: none; stroke-width: 1; stroke-dasharray: none; stroke-linecap: butt; stroke-linejoin: miter; stroke-miterlimit: 10; fill: rgb(0,0,0); fill-rule: nonzero; opacity: 1;" transform=" matrix(1 0 0 1 0 0) " stroke-linecap="round" />
	<path d="M 70.962 46 c -0.553 0 -1 -0.448 -1 -1 V 20.019 H 45.02 c -0.552 0 -1 -0.448 -1 -1 s 0.448 -1 1 -1 h 25.942 c 0.553 0 1 0.448 1 1 V 45 C 71.962 45.552 71.515 46 70.962 46 z" style="stroke: none; stroke-width: 1; stroke-dasharray: none; stroke-linecap: butt; stroke-linejoin: miter; stroke-miterlimit: 10; fill: rgb(0,0,0); fill-rule: nonzero; opacity: 1;" transform=" matrix(1 0 0 1 0 0) " stroke-linecap="round" />
	<path d="M 44.98 71.981 H 19.038 c -0.552 0 -1 -0.447 -1 -1 V 45 c 0 -0.552 0.448 -1 1 -1 s 1 0.448 1 1 v 24.981 H 44.98 c 0.552 0 1 0.447 1 1 S 45.533 71.981 44.98 71.981 z" style="stroke: none; stroke-width: 1; stroke-dasharray: none; stroke-linecap: butt; stroke-linejoin: miter; stroke-miterlimit: 10; fill: rgb(0,0,0); fill-rule: nonzero; opacity: 1;" transform=" matrix(1 0 0 1 0 0) " stroke-linecap="round" />
	<path d="M 67.096 58.473 c -0.813 -0.813 -2.151 -0.933 -3.005 -0.164 c -0.911 0.821 -0.939 2.226 -0.083 3.082 l -1.236 -1.236 c -0.813 -0.813 -2.151 -0.933 -3.006 -0.164 c -0.911 0.821 -0.939 2.226 -0.083 3.082 l 0.559 0.559 c -0.829 -0.829 -2.174 -0.829 -3.003 0 l 0 0 c -0.829 0.829 -0.829 2.174 0 3.003 l 0.478 0.478 c -0.933 -0.933 -2.528 -0.826 -3.309 0.322 c -0.579 0.852 -0.402 2.013 0.326 2.741 l 0.035 0.035 l 8.959 8.959 c 1.574 1.574 3.281 2.106 5.041 2.508 c 1.806 0.413 3.457 1.332 4.767 2.642 l 4.68 4.68 l 9.353 -9.353 l -5.501 -5.501 c -1.602 -1.602 -2.602 -3.706 -2.834 -5.959 l -0.01 -0.097 c -0.183 -1.776 -0.972 -3.436 -2.234 -4.698 l -2.743 -2.743 c -0.729 -0.729 -1.939 -0.684 -2.609 0.135 c -0.582 0.712 -0.458 1.773 0.193 2.423" style="stroke: none; stroke-width: 1; stroke-dasharray: none; stroke-linecap: butt; stroke-linejoin: miter; stroke-miterlimit: 10; fill: rgb(244,185,143); fill-rule: nonzero; opacity: 1;" transform=" matrix(1 0 0 1 0 0) " stroke-linecap="round" />
	<path d="M 67.51 65.894 c -0.256 0 -0.512 -0.098 -0.707 -0.293 l -3.502 -3.503 c -0.391 -0.391 -0.391 -1.023 0 -1.414 s 1.023 -0.391 1.414 0 l 3.502 3.503 c 0.391 0.391 0.391 1.023 0 1.414 C 68.021 65.796 67.766 65.894 67.51 65.894 z" style="stroke: none; stroke-width: 1; stroke-dasharray: none; stroke-linecap: butt; stroke-linejoin: miter; stroke-miterlimit: 10; fill: rgb(0,0,0); fill-rule: nonzero; opacity: 1;" transform=" matrix(1 0 0 1 0 0) " stroke-linecap="round" />
	<path d="M 64.507 68.896 c -0.256 0 -0.512 -0.098 -0.707 -0.293 l -4.266 -4.265 c -0.391 -0.391 -0.391 -1.023 0 -1.414 s 1.023 -0.391 1.414 0 l 4.266 4.265 c 0.391 0.391 0.391 1.023 0 1.414 C 65.019 68.799 64.763 68.896 64.507 68.896 z" style="stroke: none; stroke-width: 1; stroke-dasharray: none; stroke-linecap: butt; stroke-linejoin: miter; stroke-miterlimit: 10; fill: rgb(0,0,0); fill-rule: nonzero; opacity: 1;" transform=" matrix(1 0 0 1 0 0) " stroke-linecap="round" />
	<path d="M 61.503 71.9 c -0.256 0 -0.512 -0.098 -0.707 -0.293 l -3.787 -3.787 c -0.391 -0.391 -0.391 -1.023 0 -1.414 s 1.023 -0.391 1.414 0 l 3.787 3.787 c 0.391 0.391 0.391 1.023 0 1.414 C 62.015 71.803 61.759 71.9 61.503 71.9 z" style="stroke: none; stroke-width: 1; stroke-dasharray: none; stroke-linecap: butt; stroke-linejoin: miter; stroke-miterlimit: 10; fill: rgb(0,0,0); fill-rule: nonzero; opacity: 1;" transform=" matrix(1 0 0 1 0 0) " stroke-linecap="round" />
	<path d="M 78.215 90 c -0.256 0 -0.512 -0.098 -0.707 -0.293 l -4.681 -4.68 c -1.183 -1.184 -2.663 -2.004 -4.282 -2.375 c -1.725 -0.395 -3.717 -0.966 -5.525 -2.775 l -8.958 -8.959 c -1.13 -1.129 -1.317 -2.815 -0.481 -4.045 c 0.485 -0.713 1.227 -1.192 2.063 -1.34 c -0.119 -0.928 0.177 -1.898 0.888 -2.608 c 0.446 -0.446 0.995 -0.729 1.571 -0.849 c -0.032 -0.192 -0.046 -0.389 -0.041 -0.587 c 0.022 -0.865 0.391 -1.661 1.035 -2.241 c 0.961 -0.864 2.341 -1.003 3.481 -0.445 c 0.173 -0.468 0.459 -0.891 0.844 -1.236 c 1.234 -1.111 3.157 -1.024 4.381 0.199 l 2.789 2.789 c 0.076 -0.142 0.167 -0.276 0.271 -0.403 c 0.495 -0.605 1.225 -0.975 2.002 -1.014 c 0.763 -0.045 1.539 0.255 2.089 0.805 l 2.742 2.742 c 1.421 1.421 2.316 3.304 2.522 5.303 c 0.217 2.115 1.121 4.018 2.556 5.452 l 5.501 5.5 c 0.188 0.188 0.293 0.441 0.293 0.707 s -0.105 0.52 -0.293 0.707 l -9.353 9.354 C 78.727 89.902 78.471 90 78.215 90 z M 56.195 67.485 c -0.037 0 -0.074 0.002 -0.111 0.005 c -0.201 0.02 -0.58 0.11 -0.85 0.507 c -0.292 0.431 -0.203 1.063 0.206 1.473 l 8.993 8.993 c 1.434 1.434 3.037 1.893 4.557 2.24 c 1.987 0.454 3.803 1.461 5.251 2.91 l 3.974 3.973 l 7.938 -7.939 l -4.794 -4.793 c -1.759 -1.759 -2.867 -4.09 -3.122 -6.564 c -0.168 -1.64 -0.859 -3.094 -1.956 -4.19 l -2.742 -2.742 c -0.153 -0.153 -0.36 -0.223 -0.575 -0.222 c -0.217 0.011 -0.413 0.111 -0.553 0.282 c -0.237 0.29 -0.181 0.776 0.126 1.083 c 0.195 0.195 0.293 0.451 0.293 0.707 s -0.098 0.512 -0.293 0.707 c -0.391 0.391 -1.023 0.391 -1.414 0 l -4.734 -4.734 c -0.462 -0.463 -1.194 -0.52 -1.629 -0.127 c -0.233 0.21 -0.366 0.496 -0.374 0.807 c -0.008 0.312 0.108 0.604 0.329 0.824 l 0 0 c 0.391 0.391 0.391 1.023 0 1.414 s -1.023 0.391 -1.414 0 l 0 0 l -1.236 -1.236 c -0.462 -0.462 -1.194 -0.52 -1.63 -0.127 c -0.232 0.21 -0.365 0.496 -0.374 0.808 c -0.008 0.312 0.109 0.604 0.329 0.824 l 0.559 0.559 c 0.195 0.195 0.293 0.451 0.293 0.707 s -0.098 0.512 -0.293 0.707 c -0.391 0.391 -1.023 0.391 -1.414 0 c -0.438 -0.437 -1.15 -0.438 -1.589 0 c -0.438 0.438 -0.438 1.151 0.001 1.59 l 0.477 0.478 l 0 0 c 0.391 0.391 0.391 1.024 0 1.414 c -0.391 0.391 -1.023 0.391 -1.414 0 l 0 0 C 56.793 67.604 56.501 67.485 56.195 67.485 z" style="stroke: none; stroke-width: 1; stroke-dasharray: none; stroke-linecap: butt; stroke-linejoin: miter; stroke-miterlimit: 10; fill: rgb(0,0,0); fill-rule: nonzero; opacity: 1;" transform=" matrix(1 0 0 1 0 0) " stroke-linecap="round" />
	<path d="M 22.904 58.473 c 0.813 -0.813 2.151 -0.933 3.005 -0.164 c 0.911 0.821 0.939 2.226 0.083 3.082 l 1.236 -1.236 c 0.813 -0.813 2.151 -0.933 3.006 -0.164 c 0.911 0.821 0.939 2.226 0.083 3.082 l -0.559 0.559 c 0.829 -0.829 2.174 -0.829 3.003 0 l 0 0 c 0.829 0.829 0.829 2.174 0 3.003 l -0.478 0.478 c 0.933 -0.933 2.528 -0.826 3.309 0.322 c 0.579 0.852 0.402 2.013 -0.326 2.741 l -0.035 0.035 l -8.959 8.959 c -1.574 1.574 -3.281 2.106 -5.041 2.508 c -1.806 0.413 -3.457 1.332 -4.767 2.642 L 11.786 89 l -9.353 -9.353 l 5.501 -5.501 c 1.602 -1.602 2.602 -3.706 2.834 -5.959 l 0.01 -0.097 c 0.183 -1.776 0.972 -3.436 2.234 -4.698 l 2.743 -2.743 c 0.729 -0.729 1.939 -0.684 2.609 0.135 c 0.582 0.712 0.458 1.773 -0.193 2.423" style="stroke: none; stroke-width: 1; stroke-dasharray: none; stroke-linecap: butt; stroke-linejoin: miter; stroke-miterlimit: 10; fill: rgb(244,185,143); fill-rule: nonzero; opacity: 1;" transform=" matrix(1 0 0 1 0 0) " stroke-linecap="round" />
	<path d="M 22.49 65.894 c -0.256 0 -0.512 -0.098 -0.707 -0.293 c -0.391 -0.391 -0.391 -1.023 0 -1.414 l 3.502 -3.503 c 0.391 -0.391 1.023 -0.391 1.414 0 s 0.391 1.023 0 1.414 l -3.502 3.503 C 23.002 65.796 22.746 65.894 22.49 65.894 z" style="stroke: none; stroke-width: 1; stroke-dasharray: none; stroke-linecap: butt; stroke-linejoin: miter; stroke-miterlimit: 10; fill: rgb(0,0,0); fill-rule: nonzero; opacity: 1;" transform=" matrix(1 0 0 1 0 0) " stroke-linecap="round" />
	<path d="M 25.494 68.896 c -0.256 0 -0.512 -0.098 -0.707 -0.293 c -0.391 -0.391 -0.391 -1.023 0 -1.414 l 4.265 -4.265 c 0.391 -0.391 1.023 -0.391 1.414 0 s 0.391 1.023 0 1.414 l -4.265 4.265 C 26.005 68.799 25.75 68.896 25.494 68.896 z" style="stroke: none; stroke-width: 1; stroke-dasharray: none; stroke-linecap: butt; stroke-linejoin: miter; stroke-miterlimit: 10; fill: rgb(0,0,0); fill-rule: nonzero; opacity: 1;" transform=" matrix(1 0 0 1 0 0) " stroke-linecap="round" />
	<path d="M 28.497 71.9 c -0.256 0 -0.512 -0.098 -0.707 -0.293 c -0.391 -0.391 -0.391 -1.023 0 -1.414 l 3.787 -3.787 c 0.391 -0.391 1.023 -0.391 1.414 0 s 0.391 1.023 0 1.414 l -3.787 3.787 C 29.009 71.803 28.753 71.9 28.497 71.9 z" style="stroke: none; stroke-width: 1; stroke-dasharray: none; stroke-linecap: butt; stroke-linejoin: miter; stroke-miterlimit: 10; fill: rgb(0,0,0); fill-rule: nonzero; opacity: 1;" transform=" matrix(1 0 0 1 0 0) " stroke-linecap="round" />
	<path d="M 11.786 90 c -0.265 0 -0.52 -0.105 -0.707 -0.293 l -9.353 -9.354 c -0.188 -0.188 -0.293 -0.441 -0.293 -0.707 s 0.105 -0.52 0.293 -0.707 l 5.5 -5.5 c 1.435 -1.435 2.339 -3.337 2.546 -5.355 c 0 -0.001 0.01 -0.099 0.01 -0.1 c 0.206 -1.996 1.101 -3.879 2.522 -5.3 l 2.743 -2.742 c 0.55 -0.55 1.328 -0.849 2.088 -0.805 c 0.777 0.038 1.507 0.408 2.001 1.014 c 0.104 0.127 0.195 0.263 0.271 0.403 l 2.79 -2.789 c 1.221 -1.225 3.146 -1.311 4.382 -0.199 c 0.384 0.346 0.67 0.769 0.843 1.236 c 1.14 -0.559 2.521 -0.42 3.482 0.445 c 0.644 0.58 1.012 1.375 1.035 2.24 c 0.005 0.198 -0.009 0.395 -0.041 0.588 c 0.576 0.12 1.125 0.402 1.571 0.849 c 0.59 0.59 0.915 1.374 0.915 2.209 c 0 0.135 -0.008 0.269 -0.025 0.4 c 0.835 0.147 1.577 0.626 2.061 1.34 c 0.835 1.229 0.648 2.915 -0.446 4.01 l -8.994 8.993 c -1.81 1.809 -3.801 2.381 -5.525 2.775 c -1.619 0.371 -3.1 1.191 -4.283 2.375 l -4.68 4.68 C 12.305 89.895 12.051 90 11.786 90 z M 3.847 79.646 l 7.939 7.939 l 3.973 -3.973 c 1.449 -1.449 3.265 -2.456 5.251 -2.91 c 1.52 -0.348 3.123 -0.807 4.557 -2.24 l 8.958 -8.959 c 0.444 -0.444 0.533 -1.077 0.241 -1.506 c -0.27 -0.397 -0.648 -0.488 -0.849 -0.508 c -0.345 -0.025 -0.683 0.088 -0.925 0.33 h 0 c -0.391 0.391 -1.023 0.391 -1.414 0 s -0.391 -1.023 0 -1.414 c 0 0 0 0 0 0 l 0.478 -0.478 c 0.212 -0.213 0.329 -0.495 0.329 -0.795 c 0 -0.301 -0.117 -0.583 -0.329 -0.795 c -0.438 -0.438 -1.151 -0.438 -1.589 0 l 0 0 c -0.391 0.391 -1.024 0.391 -1.415 0 c -0.39 -0.391 -0.39 -1.024 0 -1.414 l 0.559 -0.559 c 0.22 -0.221 0.337 -0.514 0.329 -0.825 c -0.008 -0.311 -0.141 -0.597 -0.374 -0.807 c -0.435 -0.392 -1.166 -0.336 -1.629 0.127 L 26.7 62.098 l 0 0 c -0.391 0.391 -1.023 0.391 -1.414 0 s -0.391 -1.023 0 -1.414 l 0 0 c 0.22 -0.22 0.336 -0.513 0.329 -0.823 c -0.008 -0.312 -0.141 -0.598 -0.374 -0.808 c -0.437 -0.393 -1.167 -0.335 -1.629 0.127 l -4.735 4.734 c -0.391 0.391 -1.023 0.391 -1.414 0 c -0.195 -0.195 -0.293 -0.451 -0.293 -0.707 s 0.098 -0.512 0.293 -0.707 c 0.307 -0.307 0.363 -0.793 0.126 -1.083 c -0.14 -0.171 -0.336 -0.271 -0.553 -0.282 c -0.213 -0.002 -0.421 0.067 -0.574 0.222 l -2.743 2.742 c -1.097 1.097 -1.788 2.551 -1.947 4.094 c 0 0.001 -0.01 0.099 -0.01 0.1 c -0.254 2.472 -1.363 4.803 -3.122 6.562 L 3.847 79.646 z" style="stroke: none; stroke-width: 1; stroke-dasharray: none; stroke-linecap: butt; stroke-linejoin: miter; stroke-miterlimit: 10; fill: rgb(0,0,0); fill-rule: nonzero; opacity: 1;" transform=" matrix(1 0 0 1 0 0) " stroke-linecap="round" />
	<path d="M 22.904 31.527 c 0.813 0.813 2.151 0.933 3.005 0.164 c 0.911 -0.821 0.939 -2.226 0.083 -3.082 l 1.236 1.236 c 0.813 0.813 2.151 0.933 3.006 0.164 c 0.911 -0.821 0.939 -2.226 0.083 -3.082 l -0.559 -0.559 c 0.829 0.829 2.174 0.829 3.003 0 l 0 0 c 0.829 -0.829 0.829 -2.174 0 -3.003 l -0.478 -0.478 c 0.933 0.933 2.528 0.826 3.309 -0.322 c 0.579 -0.852 0.402 -2.013 -0.326 -2.741 l -0.035 -0.035 l -8.959 -8.959 c -1.574 -1.574 -3.281 -2.106 -5.041 -2.508 c -1.806 -0.413 -3.457 -1.332 -4.767 -2.642 L 11.786 1 l -9.353 9.353 l 5.501 5.501 c 1.602 1.602 2.602 3.706 2.834 5.959 l 0.01 0.097 c 0.183 1.776 0.972 3.436 2.234 4.698 l 2.743 2.743 c 0.729 0.729 1.939 0.684 2.609 -0.135 c 0.582 -0.712 0.458 -1.773 -0.193 -2.423" style="stroke: none; stroke-width: 1; stroke-dasharray: none; stroke-linecap: butt; stroke-linejoin: miter; stroke-miterlimit: 10; fill: rgb(244,185,143); fill-rule: nonzero; opacity: 1;" transform=" matrix(1 0 0 1 0 0) " stroke-linecap="round" />
	<path d="M 25.993 29.609 c -0.256 0 -0.512 -0.098 -0.707 -0.293 l -3.502 -3.502 c -0.391 -0.391 -0.391 -1.023 0 -1.414 s 1.023 -0.391 1.414 0 l 3.502 3.502 c 0.391 0.391 0.391 1.023 0 1.414 C 26.504 29.511 26.249 29.609 25.993 29.609 z" style="stroke: none; stroke-width: 1; stroke-dasharray: none; stroke-linecap: butt; stroke-linejoin: miter; stroke-miterlimit: 10; fill: rgb(0,0,0); fill-rule: nonzero; opacity: 1;" transform=" matrix(1 0 0 1 0 0) " stroke-linecap="round" />
	<path d="M 29.758 27.368 c -0.256 0 -0.512 -0.098 -0.707 -0.293 l -4.265 -4.265 c -0.391 -0.391 -0.391 -1.023 0 -1.414 s 1.023 -0.391 1.414 0 l 4.265 4.265 c 0.391 0.391 0.391 1.023 0 1.414 C 30.27 27.271 30.014 27.368 29.758 27.368 z" style="stroke: none; stroke-width: 1; stroke-dasharray: none; stroke-linecap: butt; stroke-linejoin: miter; stroke-miterlimit: 10; fill: rgb(0,0,0); fill-rule: nonzero; opacity: 1;" transform=" matrix(1 0 0 1 0 0) " stroke-linecap="round" />
	<path d="M 32.284 23.887 c -0.256 0 -0.512 -0.098 -0.707 -0.293 l -3.787 -3.787 c -0.391 -0.391 -0.391 -1.023 0 -1.414 s 1.023 -0.391 1.414 0 l 3.787 3.787 c 0.391 0.391 0.391 1.023 0 1.414 C 32.796 23.79 32.54 23.887 32.284 23.887 z" style="stroke: none; stroke-width: 1; stroke-dasharray: none; stroke-linecap: butt; stroke-linejoin: miter; stroke-miterlimit: 10; fill: rgb(0,0,0); fill-rule: nonzero; opacity: 1;" transform=" matrix(1 0 0 1 0 0) " stroke-linecap="round" />
	<path d="M 24.529 33.213 c -0.836 0 -1.683 -0.329 -2.332 -0.979 l -2.79 -2.789 c -0.076 0.142 -0.167 0.277 -0.271 0.404 c -0.495 0.605 -1.225 0.974 -2.001 1.013 c -0.768 0.039 -1.538 -0.254 -2.088 -0.805 l -2.743 -2.743 c -1.421 -1.421 -2.316 -3.305 -2.522 -5.304 c -0.218 -2.114 -1.122 -4.016 -2.557 -5.451 l -5.5 -5.501 c -0.391 -0.391 -0.391 -1.023 0 -1.414 l 9.353 -9.353 c 0.391 -0.391 1.023 -0.391 1.414 0 l 4.68 4.68 c 1.184 1.183 2.665 2.004 4.283 2.375 c 1.724 0.394 3.716 0.966 5.525 2.776 l 8.958 8.958 c 1.129 1.129 1.317 2.815 0.481 4.045 c -0.484 0.712 -1.226 1.191 -2.061 1.339 c 0.017 0.131 0.025 0.265 0.025 0.4 c 0 0.834 -0.325 1.619 -0.915 2.209 c -0.446 0.446 -0.995 0.729 -1.571 0.848 c 0.032 0.193 0.046 0.391 0.041 0.588 c -0.023 0.865 -0.391 1.661 -1.035 2.24 c -0.96 0.865 -2.34 1.003 -3.481 0.445 c -0.173 0.468 -0.458 0.891 -0.843 1.237 C 26 32.956 25.269 33.213 24.529 33.213 z M 18.17 25.793 c 0.256 0 0.512 0.098 0.707 0.293 l 4.734 4.734 c 0.463 0.463 1.193 0.521 1.629 0.127 c 0.233 -0.209 0.366 -0.497 0.374 -0.808 c 0.008 -0.312 -0.109 -0.604 -0.329 -0.824 c -0.195 -0.195 -0.293 -0.451 -0.293 -0.707 s 0.098 -0.512 0.293 -0.707 c 0.391 -0.391 1.023 -0.391 1.414 0 l 1.236 1.236 c 0.463 0.462 1.193 0.52 1.629 0.127 c 0.233 -0.209 0.366 -0.496 0.374 -0.807 c 0.008 -0.312 -0.108 -0.605 -0.329 -0.825 l -0.559 -0.558 l 0 0 c -0.391 -0.391 -0.391 -1.024 0 -1.415 c 0.391 -0.391 1.024 -0.39 1.415 0 v 0 c 0.438 0.438 1.15 0.438 1.589 0 c 0.212 -0.212 0.329 -0.495 0.329 -0.795 c 0 -0.3 -0.117 -0.582 -0.329 -0.794 l -0.478 -0.478 c -0.195 -0.195 -0.293 -0.451 -0.293 -0.707 s 0.098 -0.512 0.293 -0.707 c 0.391 -0.391 1.023 -0.391 1.414 0 c 0.242 0.242 0.578 0.364 0.925 0.329 c 0.201 -0.019 0.58 -0.11 0.849 -0.507 c 0.292 -0.43 0.204 -1.062 -0.206 -1.472 l -8.993 -8.993 c -1.434 -1.434 -3.038 -1.893 -4.557 -2.241 c -1.985 -0.454 -3.801 -1.46 -5.251 -2.91 l -3.973 -3.973 l -7.939 7.939 l 4.793 4.794 c 1.759 1.759 2.868 4.09 3.122 6.564 c 0.169 1.639 0.86 3.093 1.957 4.19 l 2.743 2.743 c 0.153 0.154 0.352 0.235 0.575 0.221 c 0.216 -0.011 0.413 -0.111 0.553 -0.282 c 0.237 -0.29 0.181 -0.775 -0.126 -1.083 c -0.391 -0.391 -0.391 -1.023 0 -1.414 C 17.658 25.891 17.914 25.793 18.17 25.793 z" style="stroke: none; stroke-width: 1; stroke-dasharray: none; stroke-linecap: butt; stroke-linejoin: miter; stroke-miterlimit: 10; fill: rgb(0,0,0); fill-rule: nonzero; opacity: 1;" transform=" matrix(1 0 0 1 0 0) " stroke-linecap="round" />
	<path d="M 67.096 31.527 c -0.813 0.813 -2.151 0.933 -3.005 0.164 c -0.911 -0.821 -0.939 -2.226 -0.083 -3.082 l -1.236 1.236 c -0.813 0.813 -2.151 0.933 -3.006 0.164 c -0.911 -0.821 -0.939 -2.226 -0.083 -3.082 l 0.559 -0.559 c -0.829 0.829 -2.174 0.829 -3.003 0 l 0 0 c -0.829 -0.829 -0.829 -2.174 0 -3.003 l 0.478 -0.478 c -0.933 0.933 -2.528 0.826 -3.309 -0.322 c -0.579 -0.852 -0.402 -2.013 0.326 -2.741 l 0.035 -0.035 l 8.959 -8.959 c 1.574 -1.574 3.281 -2.106 5.041 -2.508 c 1.806 -0.413 3.457 -1.332 4.767 -2.642 L 78.214 1 l 9.353 9.353 l -5.501 5.501 c -1.602 1.602 -2.602 3.706 -2.834 5.959 l -0.01 0.097 c -0.183 1.776 -0.972 3.436 -2.234 4.698 l -2.743 2.743 c -0.729 0.729 -1.939 0.684 -2.609 -0.135 c -0.582 -0.712 -0.458 -1.773 0.193 -2.423" style="stroke: none; stroke-width: 1; stroke-dasharray: none; stroke-linecap: butt; stroke-linejoin: miter; stroke-miterlimit: 10; fill: rgb(244,185,143); fill-rule: nonzero; opacity: 1;" transform=" matrix(1 0 0 1 0 0) " stroke-linecap="round" />
	<path d="M 64.008 29.609 c -0.256 0 -0.512 -0.098 -0.707 -0.293 c -0.391 -0.39 -0.391 -1.023 0 -1.414 l 3.502 -3.502 c 0.391 -0.391 1.023 -0.391 1.414 0 c 0.391 0.39 0.391 1.023 0 1.414 l -3.502 3.502 C 64.52 29.511 64.264 29.609 64.008 29.609 z" style="stroke: none; stroke-width: 1; stroke-dasharray: none; stroke-linecap: butt; stroke-linejoin: miter; stroke-miterlimit: 10; fill: rgb(0,0,0); fill-rule: nonzero; opacity: 1;" transform=" matrix(1 0 0 1 0 0) " stroke-linecap="round" />
	<path d="M 60.241 27.368 c -0.256 0 -0.512 -0.098 -0.707 -0.293 c -0.391 -0.391 -0.391 -1.023 0 -1.414 l 4.266 -4.265 c 0.391 -0.391 1.023 -0.391 1.414 0 s 0.391 1.023 0 1.414 l -4.266 4.265 C 60.753 27.271 60.497 27.368 60.241 27.368 z" style="stroke: none; stroke-width: 1; stroke-dasharray: none; stroke-linecap: butt; stroke-linejoin: miter; stroke-miterlimit: 10; fill: rgb(0,0,0); fill-rule: nonzero; opacity: 1;" transform=" matrix(1 0 0 1 0 0) " stroke-linecap="round" />
	<path d="M 57.716 23.887 c -0.256 0 -0.512 -0.098 -0.707 -0.293 c -0.391 -0.391 -0.391 -1.023 0 -1.414 l 3.787 -3.787 c 0.391 -0.391 1.023 -0.391 1.414 0 s 0.391 1.023 0 1.414 l -3.787 3.787 C 58.228 23.79 57.972 23.887 57.716 23.887 z" style="stroke: none; stroke-width: 1; stroke-dasharray: none; stroke-linecap: butt; stroke-linejoin: miter; stroke-miterlimit: 10; fill: rgb(0,0,0); fill-rule: nonzero; opacity: 1;" transform=" matrix(1 0 0 1 0 0) " stroke-linecap="round" />
	<path d="M 65.471 33.212 c -0.739 0 -1.471 -0.257 -2.049 -0.778 c -0.385 -0.346 -0.671 -0.769 -0.844 -1.237 c -1.14 0.559 -2.52 0.42 -3.481 -0.445 c -0.645 -0.581 -1.013 -1.376 -1.035 -2.241 c -0.005 -0.198 0.009 -0.395 0.041 -0.587 c -0.576 -0.119 -1.125 -0.402 -1.571 -0.848 c -0.711 -0.711 -1.007 -1.682 -0.888 -2.609 c -0.837 -0.147 -1.578 -0.626 -2.063 -1.34 c -0.836 -1.229 -0.648 -2.916 0.446 -4.01 l 8.993 -8.993 c 1.809 -1.81 3.801 -2.382 5.525 -2.776 c 1.618 -0.371 3.1 -1.192 4.282 -2.375 l 4.681 -4.68 c 0.391 -0.391 1.023 -0.391 1.414 0 l 9.353 9.353 c 0.391 0.391 0.391 1.023 0 1.414 l -5.501 5.501 c -1.435 1.435 -2.339 3.336 -2.546 5.354 c -0.216 2.095 -1.111 3.979 -2.532 5.4 l -2.742 2.743 c -0.55 0.551 -1.308 0.842 -2.09 0.805 c -0.776 -0.039 -1.506 -0.408 -2.001 -1.013 c -0.104 -0.127 -0.194 -0.263 -0.271 -0.404 l -2.789 2.789 C 67.153 32.883 66.307 33.212 65.471 33.212 z M 64.715 29.316 c -0.221 0.22 -0.337 0.513 -0.329 0.824 s 0.141 0.598 0.374 0.808 c 0.436 0.393 1.167 0.335 1.629 -0.128 l 4.734 -4.733 c 0.391 -0.391 1.023 -0.391 1.414 0 s 0.391 1.023 0 1.414 c -0.307 0.307 -0.363 0.792 -0.126 1.083 c 0.14 0.17 0.336 0.271 0.553 0.282 c 0.197 0.007 0.421 -0.067 0.575 -0.222 l 2.742 -2.742 c 1.097 -1.097 1.788 -2.551 1.946 -4.094 c 0.265 -2.57 1.373 -4.902 3.132 -6.661 l 4.794 -4.794 l -7.938 -7.939 l -3.974 3.973 c -1.449 1.45 -3.265 2.456 -5.251 2.91 c -1.52 0.348 -3.123 0.807 -4.557 2.241 l -8.958 8.958 c -0.445 0.444 -0.533 1.077 -0.241 1.506 c 0.27 0.397 0.648 0.489 0.85 0.507 c 0.343 0.036 0.683 -0.087 0.925 -0.329 l 0 0 c 0.391 -0.391 1.023 -0.391 1.414 0 c 0.391 0.39 0.391 1.023 0 1.414 l 0 0 l -0.478 0.478 c -0.438 0.438 -0.438 1.151 0 1.589 c 0.438 0.439 1.151 0.437 1.589 0 c 0.391 -0.391 1.023 -0.391 1.414 0 c 0.195 0.195 0.293 0.451 0.293 0.707 s -0.098 0.512 -0.293 0.707 l -0.559 0.559 c -0.22 0.22 -0.337 0.513 -0.329 0.824 c 0.009 0.311 0.142 0.598 0.374 0.808 c 0.436 0.392 1.166 0.335 1.63 -0.128 l 1.236 -1.236 c 0 0 0 0 0 0 c 0.391 -0.39 1.023 -0.39 1.414 0 S 65.105 28.925 64.715 29.316 L 64.715 29.316 z" style="stroke: none; stroke-width: 1; stroke-dasharray: none; stroke-linecap: butt; stroke-linejoin: miter; stroke-miterlimit: 10; fill: rgb(0,0,0); fill-rule: nonzero; opacity: 1;" transform=" matrix(1 0 0 1 0 0) " stroke-linecap="round" />
</g>
</svg>