<svg xmlns="http://www.w3.org/2000/svg" xmlns:xlink="http://www.w3.org/1999/xlink" version="1.1" width="256" height="256" viewBox="0 0 256 256" xml:space="preserve">

<defs>
</defs>
<g style="stroke: none; stroke-width: 0; stroke-dasharray: none; stroke-linecap: butt; stroke-linejoin: miter; stroke-miterlimit: 10; fill: none; fill-rule: nonzero; opacity: 1;" transform="translate(1.4065934065934016 1.4065934065934016) scale(2.81 2.81)" >
	<path d="M 68.101 42.579 c 0 -13.252 -11.159 -23.898 -24.592 -23.054 c -11.424 0.717 -20.745 9.96 -21.55 21.378 c -0.566 8.022 2.968 15.248 8.717 19.798 c 3.249 2.571 5.216 6.428 5.216 10.572 v 6.724 c 0 1.167 0.946 2.113 2.113 2.113 h 13.993 c 1.167 0 2.113 -0.946 2.113 -2.113 l 0 -6.726 c 0 -4.071 1.84 -7.945 5.054 -10.443 C 64.602 56.602 68.101 50 68.101 42.579 z" style="stroke: none; stroke-width: 1; stroke-dasharray: none; stroke-linecap: butt; stroke-linejoin: miter; stroke-miterlimit: 10; fill: rgb(255,216,51); fill-rule: nonzero; opacity: 1;" transform=" matrix(1 0 0 1 0 0) " stroke-linecap="round" />
	<path d="M 48.025 89 h -6.05 c -2.113 0 -3.825 -1.713 -3.825 -3.825 v -5.065 h 13.7 v 5.065 C 51.85 87.287 50.137 89 48.025 89 z" style="stroke: none; stroke-width: 1; stroke-dasharray: none; stroke-linecap: butt; stroke-linejoin: miter; stroke-miterlimit: 10; fill: rgb(226,223,226); fill-rule: nonzero; opacity: 1;" transform=" matrix(1 0 0 1 0 0) " stroke-linecap="round" />
	<path d="M 42.102 77.997 v -6.724 c 0 -4.144 -1.967 -8 -5.216 -10.572 c -5.749 -4.55 -9.283 -11.776 -8.717 -19.798 c 0.768 -10.89 9.288 -19.783 19.985 -21.206 c -1.508 -0.206 -3.06 -0.272 -4.646 -0.172 c -11.424 0.717 -20.745 9.96 -21.55 21.378 c -0.566 8.022 2.968 15.248 8.717 19.798 c 3.249 2.571 5.216 6.428 5.216 10.572 v 6.724 c 0 1.167 0.946 2.113 2.113 2.113 h 6.211 C 43.048 80.109 42.102 79.163 42.102 77.997 z" style="stroke: none; stroke-width: 1; stroke-dasharray: none; stroke-linecap: butt; stroke-linejoin: miter; stroke-miterlimit: 10; fill: rgb(240,203,48); fill-rule: nonzero; opacity: 1;" transform=" matrix(1 0 0 1 0 0) " stroke-linecap="round" />
	<path d="M 43.474 85.175 v -5.065 H 38.15 v 5.065 c 0 2.113 1.713 3.825 3.825 3.825 h 5.324 C 45.187 89 43.474 87.287 43.474 85.175 z" style="stroke: none; stroke-width: 1; stroke-dasharray: none; stroke-linecap: butt; stroke-linejoin: miter; stroke-miterlimit: 10; fill: rgb(193,191,193); fill-rule: nonzero; opacity: 1;" transform=" matrix(1 0 0 1 0 0) " stroke-linecap="round" />
	<path d="M 35.891 71.823 v 6.174 c 0 1.167 0.946 2.113 2.113 2.113 h 13.993 c 1.167 0 2.113 -0.946 2.113 -2.113 v -6.174 H 35.891 z" style="stroke: none; stroke-width: 1; stroke-dasharray: none; stroke-linecap: butt; stroke-linejoin: miter; stroke-miterlimit: 10; fill: rgb(226,223,226); fill-rule: nonzero; opacity: 1;" transform=" matrix(1 0 0 1 0 0) " stroke-linecap="round" />
	<path d="M 35.891 71.823 v 6.174 c 0 1.167 0.946 2.113 2.113 2.113 h 6.211 c -1.167 0 -2.113 -0.946 -2.113 -2.113 v -6.174 H 35.891 z" style="stroke: none; stroke-width: 1; stroke-dasharray: none; stroke-linecap: butt; stroke-linejoin: miter; stroke-miterlimit: 10; fill: rgb(193,191,193); fill-rule: nonzero; opacity: 1;" transform=" matrix(1 0 0 1 0 0) " stroke-linecap="round" />
	<path d="M 48.024 90 h -6.049 c -2.661 0 -4.825 -2.165 -4.825 -4.825 v -5.065 c 0 -0.553 0.448 -1 1 -1 h 13.701 c 0.553 0 1 0.447 1 1 v 5.065 C 52.851 87.835 50.686 90 48.024 90 z M 39.15 81.109 v 4.065 c 0 1.558 1.268 2.825 2.825 2.825 h 6.049 c 1.559 0 2.826 -1.268 2.826 -2.825 v -4.065 H 39.15 z" style="stroke: none; stroke-width: 1; stroke-dasharray: none; stroke-linecap: butt; stroke-linejoin: miter; stroke-miterlimit: 10; fill: rgb(0,0,0); fill-rule: nonzero; opacity: 1;" transform=" matrix(1 0 0 1 0 0) " stroke-linecap="round" />
	<path d="M 54.109 72.823 H 35.891 c -0.552 0 -1 -0.447 -1 -1 v -0.551 c 0 -3.788 -1.763 -7.355 -4.836 -9.788 c -6.257 -4.951 -9.657 -12.671 -9.094 -20.652 c 0.844 -11.964 10.511 -21.553 22.486 -22.306 c 6.74 -0.424 13.149 1.879 18.051 6.482 c 4.833 4.539 7.604 10.943 7.604 17.57 c 0 7.494 -3.398 14.434 -9.325 19.038 c -2.922 2.271 -4.667 5.88 -4.667 9.653 v 0.553 C 55.109 72.376 54.662 72.823 54.109 72.823 z M 36.883 70.823 h 16.233 c 0.133 -4.223 2.143 -8.229 5.434 -10.785 c 5.435 -4.224 8.552 -10.587 8.552 -17.459 c 0 -6.167 -2.477 -11.889 -6.974 -16.113 c -4.493 -4.221 -10.374 -6.332 -16.557 -5.943 c -10.979 0.69 -19.842 9.481 -20.616 20.45 c -0.517 7.321 2.601 14.402 8.34 18.943 l 0 0 C 34.73 62.635 36.75 66.589 36.883 70.823 z" style="stroke: none; stroke-width: 1; stroke-dasharray: none; stroke-linecap: butt; stroke-linejoin: miter; stroke-miterlimit: 10; fill: rgb(0,0,0); fill-rule: nonzero; opacity: 1;" transform=" matrix(1 0 0 1 0 0) " stroke-linecap="round" />
	<path d="M 51.996 81.109 H 38.003 c -1.716 0 -3.113 -1.396 -3.113 -3.113 v -6.173 c 0 -0.553 0.448 -1 1 -1 h 18.219 c 0.553 0 1 0.447 1 1 v 6.173 C 55.109 79.713 53.713 81.109 51.996 81.109 z M 36.891 72.823 v 5.173 c 0 0.614 0.499 1.113 1.113 1.113 h 13.993 c 0.614 0 1.113 -0.499 1.113 -1.113 v -5.173 H 36.891 z" style="stroke: none; stroke-width: 1; stroke-dasharray: none; stroke-linecap: butt; stroke-linejoin: miter; stroke-miterlimit: 10; fill: rgb(0,0,0); fill-rule: nonzero; opacity: 1;" transform=" matrix(1 0 0 1 0 0) " stroke-linecap="round" />
	<path d="M 86.262 43.261 h -9.924 c -0.553 0 -1 -0.448 -1 -1 s 0.447 -1 1 -1 h 9.924 c 0.553 0 1 0.448 1 1 S 86.814 43.261 86.262 43.261 z" style="stroke: none; stroke-width: 1; stroke-dasharray: none; stroke-linecap: butt; stroke-linejoin: miter; stroke-miterlimit: 10; fill: rgb(0,0,0); fill-rule: nonzero; opacity: 1;" transform=" matrix(1 0 0 1 0 0) " stroke-linecap="round" />
	<path d="M 13.662 43.261 H 3.739 c -0.552 0 -1 -0.448 -1 -1 s 0.448 -1 1 -1 h 9.923 c 0.552 0 1 0.448 1 1 S 14.214 43.261 13.662 43.261 z" style="stroke: none; stroke-width: 1; stroke-dasharray: none; stroke-linecap: butt; stroke-linejoin: miter; stroke-miterlimit: 10; fill: rgb(0,0,0); fill-rule: nonzero; opacity: 1;" transform=" matrix(1 0 0 1 0 0) " stroke-linecap="round" />
	<path d="M 45 11.924 c -0.552 0 -1 -0.448 -1 -1 V 1 c 0 -0.552 0.448 -1 1 -1 s 1 0.448 1 1 v 9.924 C 46 11.476 45.552 11.924 45 11.924 z" style="stroke: none; stroke-width: 1; stroke-dasharray: none; stroke-linecap: butt; stroke-linejoin: miter; stroke-miterlimit: 10; fill: rgb(0,0,0); fill-rule: nonzero; opacity: 1;" transform=" matrix(1 0 0 1 0 0) " stroke-linecap="round" />
	<path d="M 72.141 27.593 c -0.346 0 -0.682 -0.179 -0.867 -0.5 c -0.276 -0.478 -0.112 -1.09 0.366 -1.366 l 8.594 -4.962 c 0.476 -0.277 1.089 -0.113 1.366 0.366 c 0.276 0.478 0.112 1.09 -0.366 1.366 l -8.594 4.962 C 72.482 27.55 72.311 27.593 72.141 27.593 z" style="stroke: none; stroke-width: 1; stroke-dasharray: none; stroke-linecap: butt; stroke-linejoin: miter; stroke-miterlimit: 10; fill: rgb(0,0,0); fill-rule: nonzero; opacity: 1;" transform=" matrix(1 0 0 1 0 0) " stroke-linecap="round" />
	<path d="M 9.268 63.893 c -0.346 0 -0.682 -0.179 -0.867 -0.5 c -0.276 -0.479 -0.112 -1.09 0.366 -1.366 l 8.594 -4.962 c 0.477 -0.277 1.089 -0.113 1.366 0.366 c 0.276 0.479 0.112 1.09 -0.366 1.366 l -8.594 4.962 C 9.609 63.85 9.437 63.893 9.268 63.893 z" style="stroke: none; stroke-width: 1; stroke-dasharray: none; stroke-linecap: butt; stroke-linejoin: miter; stroke-miterlimit: 10; fill: rgb(0,0,0); fill-rule: nonzero; opacity: 1;" transform=" matrix(1 0 0 1 0 0) " stroke-linecap="round" />
	<path d="M 60.668 16.122 c -0.17 0 -0.342 -0.043 -0.499 -0.134 c -0.479 -0.276 -0.643 -0.888 -0.366 -1.366 l 4.962 -8.594 c 0.276 -0.479 0.888 -0.643 1.366 -0.366 c 0.479 0.276 0.643 0.888 0.366 1.366 l -4.962 8.594 C 61.35 15.943 61.014 16.122 60.668 16.122 z" style="stroke: none; stroke-width: 1; stroke-dasharray: none; stroke-linecap: butt; stroke-linejoin: miter; stroke-miterlimit: 10; fill: rgb(0,0,0); fill-rule: nonzero; opacity: 1;" transform=" matrix(1 0 0 1 0 0) " stroke-linecap="round" />
	<path d="M 24.368 78.995 c -0.169 0 -0.341 -0.043 -0.499 -0.134 c -0.479 -0.276 -0.642 -0.888 -0.366 -1.366 l 4.962 -8.595 c 0.276 -0.479 0.885 -0.644 1.366 -0.366 c 0.479 0.276 0.642 0.888 0.366 1.366 l -4.962 8.595 C 25.05 78.815 24.714 78.995 24.368 78.995 z" style="stroke: none; stroke-width: 1; stroke-dasharray: none; stroke-linecap: butt; stroke-linejoin: miter; stroke-miterlimit: 10; fill: rgb(0,0,0); fill-rule: nonzero; opacity: 1;" transform=" matrix(1 0 0 1 0 0) " stroke-linecap="round" />
	<path d="M 17.86 27.593 c -0.169 0 -0.341 -0.043 -0.499 -0.134 l -8.594 -4.962 c -0.479 -0.276 -0.642 -0.888 -0.366 -1.366 c 0.276 -0.478 0.886 -0.644 1.366 -0.366 l 8.594 4.962 c 0.479 0.276 0.642 0.888 0.366 1.366 C 18.542 27.414 18.206 27.593 17.86 27.593 z" style="stroke: none; stroke-width: 1; stroke-dasharray: none; stroke-linecap: butt; stroke-linejoin: miter; stroke-miterlimit: 10; fill: rgb(0,0,0); fill-rule: nonzero; opacity: 1;" transform=" matrix(1 0 0 1 0 0) " stroke-linecap="round" />
	<path d="M 80.732 63.893 c -0.17 0 -0.342 -0.043 -0.499 -0.134 l -8.594 -4.962 c -0.479 -0.276 -0.643 -0.888 -0.366 -1.366 c 0.276 -0.479 0.888 -0.644 1.366 -0.366 l 8.594 4.962 c 0.479 0.276 0.643 0.888 0.366 1.366 C 81.414 63.714 81.078 63.893 80.732 63.893 z" style="stroke: none; stroke-width: 1; stroke-dasharray: none; stroke-linecap: butt; stroke-linejoin: miter; stroke-miterlimit: 10; fill: rgb(0,0,0); fill-rule: nonzero; opacity: 1;" transform=" matrix(1 0 0 1 0 0) " stroke-linecap="round" />
	<path d="M 29.332 16.122 c -0.346 0 -0.682 -0.179 -0.867 -0.5 l -4.962 -8.594 c -0.276 -0.479 -0.112 -1.09 0.366 -1.366 c 0.477 -0.276 1.089 -0.112 1.366 0.366 l 4.962 8.594 c 0.276 0.479 0.112 1.09 -0.366 1.366 C 29.674 16.079 29.501 16.122 29.332 16.122 z" style="stroke: none; stroke-width: 1; stroke-dasharray: none; stroke-linecap: butt; stroke-linejoin: miter; stroke-miterlimit: 10; fill: rgb(0,0,0); fill-rule: nonzero; opacity: 1;" transform=" matrix(1 0 0 1 0 0) " stroke-linecap="round" />
	<path d="M 65.632 78.995 c -0.346 0 -0.682 -0.179 -0.867 -0.5 L 59.803 69.9 c -0.276 -0.479 -0.112 -1.09 0.366 -1.366 c 0.477 -0.275 1.089 -0.113 1.366 0.366 l 4.962 8.595 c 0.276 0.479 0.112 1.09 -0.366 1.366 C 65.974 78.952 65.802 78.995 65.632 78.995 z" style="stroke: none; stroke-width: 1; stroke-dasharray: none; stroke-linecap: butt; stroke-linejoin: miter; stroke-miterlimit: 10; fill: rgb(0,0,0); fill-rule: nonzero; opacity: 1;" transform=" matrix(1 0 0 1 0 0) " stroke-linecap="round" />
	<path d="M 56.384 35.116 c -2.565 -2.565 -6.723 -2.565 -9.288 0 L 45 37.211 l -2.096 -2.096 c -1.088 -1.088 -2.463 -1.709 -3.881 -1.874 c -0.561 0.326 -1.093 0.721 -1.573 1.201 c -3.001 3.001 -3.001 7.866 0 10.867 l 2.452 2.452 l 6.562 6.562 l 7.824 -7.824 l 2.096 -2.096 C 58.948 41.839 58.948 37.68 56.384 35.116 z" style="stroke: none; stroke-width: 1; stroke-dasharray: none; stroke-linecap: butt; stroke-linejoin: miter; stroke-miterlimit: 10; fill: rgb(237,79,47); fill-rule: nonzero; opacity: 1;" transform=" matrix(1 0 0 1 0 0) " stroke-linecap="round" />
	<path d="M 40.712 46.499 l -2.096 -2.096 c -2.565 -2.565 -2.565 -6.723 0 -9.288 c 0.633 -0.633 1.364 -1.109 2.144 -1.429 c -2.378 -0.978 -5.212 -0.502 -7.144 1.429 c -2.565 2.565 -2.565 6.723 0 9.288 l 2.096 2.096 L 45 55.787 l 2.5 -2.5 L 40.712 46.499 z" style="stroke: none; stroke-width: 1; stroke-dasharray: none; stroke-linecap: butt; stroke-linejoin: miter; stroke-miterlimit: 10; fill: rgb(216,72,43); fill-rule: nonzero; opacity: 1;" transform=" matrix(1 0 0 1 0 0) " stroke-linecap="round" />
	<path d="M 45 56.787 L 45 56.787 c -0.265 0 -0.52 -0.105 -0.707 -0.293 L 32.909 45.11 c -2.95 -2.951 -2.95 -7.751 0 -10.702 c 1.429 -1.43 3.33 -2.217 5.351 -2.217 s 3.922 0.787 5.351 2.217 L 45 35.797 l 1.389 -1.389 c 1.429 -1.43 3.329 -2.217 5.352 -2.217 c 2.021 0 3.922 0.787 5.351 2.217 l 0 0 c 2.95 2.95 2.95 7.751 0 10.702 L 45.707 56.494 C 45.52 56.682 45.265 56.787 45 56.787 z M 38.26 34.195 c -1.426 0 -2.852 0.542 -3.937 1.628 c -2.17 2.17 -2.17 5.703 0 7.874 L 45 54.373 l 10.677 -10.677 c 2.17 -2.171 2.171 -5.703 0 -7.874 l 0 0 c -1.052 -1.052 -2.449 -1.631 -3.937 -1.631 c -1.488 0 -2.886 0.579 -3.938 1.631 l -2.096 2.096 c -0.391 0.391 -1.023 0.391 -1.414 0 l -2.096 -2.096 C 41.112 34.737 39.686 34.195 38.26 34.195 z" style="stroke: none; stroke-width: 1; stroke-dasharray: none; stroke-linecap: butt; stroke-linejoin: miter; stroke-miterlimit: 10; fill: rgb(0,0,0); fill-rule: nonzero; opacity: 1;" transform=" matrix(1 0 0 1 0 0) " stroke-linecap="round" />
</g>
</svg>