<svg xmlns="http://www.w3.org/2000/svg" xmlns:xlink="http://www.w3.org/1999/xlink" version="1.1" width="256" height="256" viewBox="0 0 256 256" xml:space="preserve">

<defs>
</defs>
<g style="stroke: none; stroke-width: 0; stroke-dasharray: none; stroke-linecap: butt; stroke-linejoin: miter; stroke-miterlimit: 10; fill: none; fill-rule: nonzero; opacity: 1;" transform="translate(1.4065934065934016 1.4065934065934016) scale(2.81 2.81)" >
	<path d="M 52.373 90.196 c -0.118 0 -0.237 -0.011 -0.356 -0.032 c -9.531 -1.726 -24.94 -14.298 -26.501 -25.482 C 14.329 63.122 1.758 47.712 0.032 38.18 c -0.146 -0.802 0.21 -1.611 0.898 -2.046 c 0.689 -0.436 1.572 -0.409 2.234 0.064 c 5.056 3.623 7.808 4.952 12.618 4.493 C 8.858 32.93 4.882 23.735 3.949 13.305 c -0.069 -0.775 0.317 -1.52 0.99 -1.909 c 0.672 -0.39 1.51 -0.354 2.148 0.092 c 2.761 1.932 5.216 3.174 7.553 3.809 c -0.233 -4.396 0.498 -8.608 2.184 -12.557 c 0.307 -0.719 1.004 -1.193 1.785 -1.214 c 0.785 -0.023 1.502 0.414 1.849 1.114 c 1.946 3.947 3.939 6.635 6.156 8.271 c 1.156 -2.984 3.225 -6.138 6.178 -9.41 c 0.545 -0.603 1.401 -0.815 2.164 -0.542 c 0.764 0.276 1.286 0.987 1.319 1.799 c 0.427 10.382 1.824 18.347 4.349 24.626 c 4.484 -9.51 11.445 -18.281 21.169 -26.702 c 0.632 -0.545 1.533 -0.642 2.266 -0.245 c 0.731 0.398 1.141 1.209 1.024 2.034 c -0.629 4.488 -0.276 7.64 1.228 10.379 c 3.69 -2.134 7.998 -3.639 13.373 -4.685 c 0.652 -0.127 1.325 0.079 1.796 0.549 s 0.676 1.144 0.549 1.796 c -1.046 5.375 -2.55 9.681 -4.685 13.373 c 2.739 1.505 5.893 1.854 10.379 1.228 c 0.815 -0.116 1.636 0.292 2.034 1.025 c 0.398 0.732 0.301 1.634 -0.245 2.265 c -8.419 9.725 -17.19 16.686 -26.701 21.169 c 6.281 2.526 14.245 3.923 24.626 4.35 c 0.812 0.033 1.523 0.555 1.799 1.318 c 0.276 0.765 0.063 1.62 -0.541 2.164 c -3.271 2.953 -6.425 5.022 -9.409 6.179 c 1.636 2.217 4.324 4.21 8.271 6.156 c 0.7 0.346 1.136 1.067 1.114 1.849 s -0.495 1.479 -1.214 1.785 c -3.949 1.686 -8.167 2.418 -12.557 2.183 c 0.634 2.337 1.877 4.792 3.809 7.553 c 0.446 0.638 0.481 1.476 0.092 2.148 c -0.39 0.674 -1.139 1.055 -1.908 0.99 c -10.431 -0.933 -19.625 -4.909 -27.386 -11.834 c -0.459 4.813 0.87 7.563 4.493 12.618 c 0.475 0.662 0.5 1.546 0.064 2.234 C 53.692 89.852 53.051 90.196 52.373 90.196 z" style="stroke: none; stroke-width: 1; stroke-dasharray: none; stroke-linecap: butt; stroke-linejoin: miter; stroke-miterlimit: 10; fill: rgb(0,153,89); fill-rule: nonzero; opacity: 1;" transform=" matrix(1 0 0 1 0 0) " stroke-linecap="round" />
	<path d="M 64.995 64.264 c -8.028 -2.372 -16.266 -8.665 -22.212 -14.022 l 21.563 -21.563 c 0.781 -0.781 0.781 -2.047 0 -2.828 c -0.781 -0.781 -2.047 -0.781 -2.828 0 L 39.955 47.413 c -5.358 -5.946 -11.65 -14.185 -14.022 -22.212 c -0.313 -1.06 -1.428 -1.666 -2.485 -1.351 c -1.059 0.313 -1.664 1.425 -1.351 2.485 c 2.601 8.8 9.35 17.631 15.026 23.911 L 8.969 78.399 c -0.781 0.781 -0.781 2.047 0 2.828 c 0.391 0.391 0.902 0.586 1.414 0.586 s 1.024 -0.195 1.414 -0.586 l 28.153 -28.153 C 46.23 58.75 55.062 65.499 63.862 68.1 c 0.188 0.056 0.38 0.083 0.567 0.083 c 0.863 0 1.66 -0.564 1.917 -1.435 C 66.66 65.689 66.055 64.577 64.995 64.264 z" style="stroke: none; stroke-width: 1; stroke-dasharray: none; stroke-linecap: butt; stroke-linejoin: miter; stroke-miterlimit: 10; fill: rgb(0,126,73); fill-rule: nonzero; opacity: 1;" transform=" matrix(1 0 0 1 0 0) " stroke-linecap="round" />
</g>
</svg>