<svg xmlns="http://www.w3.org/2000/svg" xmlns:xlink="http://www.w3.org/1999/xlink" version="1.1" width="256" height="256" viewBox="0 0 256 256" xml:space="preserve">

<defs>
</defs>
<g style="stroke: none; stroke-width: 0; stroke-dasharray: none; stroke-linecap: butt; stroke-linejoin: miter; stroke-miterlimit: 10; fill: none; fill-rule: nonzero; opacity: 1;" transform="translate(1.4065934065934016 1.4065934065934016) scale(2.81 2.81)" >
	<polygon points="82.99,60.45 81.85,56.61 73.45,59.12 65.7,54.64 79.22,50.61 78.08,46.78 60.93,51.89 49,45 60.93,38.11 78.08,43.22 79.22,39.39 65.7,35.36 73.45,30.89 81.85,33.39 82.99,29.55 78.22,28.13 84.97,24.23 82.97,20.77 76.22,24.67 77.37,19.82 73.48,18.89 71.45,27.42 63.7,31.89 66.97,18.17 63.08,17.24 58.93,34.65 47,41.54 47,27.76 60,15.46 57.25,12.56 47,22.25 47,13.3 53.37,7.28 50.62,4.38 47,7.8 47,0 43,0 43,7.8 39.38,4.38 36.63,7.28 43,13.31 43,22.25 32.75,12.56 30,15.46 43,27.76 43,41.54 31.07,34.65 26.92,17.24 23.03,18.17 26.3,31.89 18.55,27.42 16.52,18.89 12.63,19.82 13.78,24.67 7.03,20.77 5.03,24.23 11.78,28.13 7.01,29.55 8.15,33.39 16.55,30.89 24.3,35.36 10.78,39.39 11.92,43.22 29.07,38.11 41,45 29.07,51.89 11.92,46.78 10.78,50.61 24.3,54.64 16.55,59.12 8.15,56.61 7.01,60.45 11.78,61.87 5.03,65.77 7.03,69.23 13.78,65.33 12.63,70.18 16.52,71.11 18.55,62.58 26.3,58.1 23.03,71.83 26.92,72.76 31.07,55.35 43,48.46 43,62.24 30,74.54 32.75,77.44 43,67.75 43,76.69 36.63,82.72 39.38,85.62 43,82.2 43,90 47,90 47,82.2 50.62,85.62 53.37,82.72 47,76.69 47,67.75 57.25,77.44 60,74.54 47,62.24 47,48.46 58.93,55.35 63.08,72.76 66.97,71.83 63.7,58.11 71.45,62.58 73.48,71.11 77.37,70.18 76.22,65.33 82.97,69.23 84.97,65.77 78.22,61.87 " style="stroke: none; stroke-width: 1; stroke-dasharray: none; stroke-linecap: butt; stroke-linejoin: miter; stroke-miterlimit: 10; fill: rgb(88,163,224); fill-rule: nonzero; opacity: 1;" transform="  matrix(1 0 0 1 0 0) "/>
</g>
</svg>